<?xml version="1.0" encoding="utf-8"?>
<!-- Generator: Adobe Illustrator 28.0.0, SVG Export Plug-In . SVG Version: 6.00 Build 0)  -->
<svg version="1.1" id="Ebene_1" xmlns="http://www.w3.org/2000/svg" xmlns:xlink="http://www.w3.org/1999/xlink" x="0px" y="0px"
	 viewBox="0 0 308.3 335.8" style="enable-background:new 0 0 308.3 335.8;" xml:space="preserve">
<style type="text/css">
	.st0{fill:#259A9A;}
	.st1{fill:#F5F5FC;}
	.st2{fill:#3E3C58;}
	.st3{fill:#3E2323;}
	.st4{fill:#279A9A;}
	.st5{fill:#38364F;}
	.st6{fill:#2A2B31;}
	.st7{fill:#EA5670;}
	.st8{fill:#408E90;}
	.st9{fill:#D48080;}
	.st10{fill:#D17E7E;}
	.st11{fill:#F05B75;}
	.st12{fill:#EFC335;}
	.st13{fill:#C67B7B;}
	.st14{fill:#3B676F;}
	.st15{fill:#B26E6F;}
	.st16{fill:#474F5A;}
	.st17{fill:#435660;}
	.st18{fill:#377177;}
	.st19{fill:#435661;}
	.st20{fill:#3D626B;}
	.st21{fill:#474F5B;}
	.st22{fill:#3E626B;}
	.st23{fill:#FEFEFE;}
	.st24{fill:#E8E8F0;}
	.st25{fill:#F1F1F6;}
	.st26{fill:#DEDEE9;}
	.st27{fill:#F1F1F5;}
	.st28{fill:#EDEDF3;}
	.st29{fill:#F0F0F6;}
	.st30{fill:#EDEDF4;}
	.st31{fill:#F4F4F8;}
	.st32{fill:#F1F1F7;}
	.st33{fill:#319A9B;}
	.st34{fill:#FB5B76;}
	.st35{fill:#2D9698;}
	.st36{fill:#299999;}
	.st37{fill:#FC728A;}
	.st38{fill:#F0F0F5;}
	.st39{fill:#E4536B;}
	.st40{fill:#E9556E;}
	.st41{fill:#49ACAC;}
	.st42{fill:#40A8A8;}
	.st43{fill:#FECE42;}
	.st44{fill:#FED762;}
	.st45{fill:#FC7289;}
	.st46{fill:#60B7B7;}
	.st47{fill:#43AAAA;}
	.st48{fill:#3CA6A6;}
	.st49{fill:#3BA5A5;}
	.st50{fill:#53B1B1;}
	.st51{fill:#42A9A9;}
	.st52{fill:#3DA7A7;}
</style>
<g>
	<path class="st0" d="M0.1,337.8C0.1,226.5,0.1,115.3,0,4c0-3.4,0.7-4.1,4.1-4.1C104.4,0,204.6,0,304.9-0.1c3.4,0,4.1,0.7,4.1,4.1
		c-0.1,109.9-0.1,219.9,0,329.8c0,3.4-0.7,4.1-4.1,4.1C203.3,337.8,101.7,337.8,0.1,337.8z"/>
	<path class="st1" d="M243.2,227c0,22.5-0.1,45,0.1,67.4c0,3.8-0.9,5.1-5,5.1c-34.1-0.2-68.3-0.1-102.4-0.1c-1.9,0-4.1,0.8-5.1-1.9
		c-0.4-1.1-1.9-1.1-2.6-0.5c-4.7,4-10.5,2-15.6,2.2c-16.6,0.7-33.3,0.1-49.9,0.4c-4,0.1-5-1.2-5-5.1c0.1-68.6,0.1-137.2,0.1-205.8
		c0-2.9-0.1-4.9,4-4.9c60.4,0.2,120.9,0.2,181.3,0.2c0.8,7.6,0.3,15.3,0.3,22.9c0.1,35.4,1.8,70.8,1,106.2c0,1.3-0.3,2.6-1.6,3.2
		c-2.3,1.2-2,3-1.3,4.9C241.1,223.5,243.4,224.9,243.2,227z"/>
	<path class="st2" d="M278.5,210.2c1.3,7.1,0.4,14-1.4,20.9c-6.2,7.5-4,16.4-3.9,24.9c0.1,7.2,1.4,14.3,2.3,21.4
		c0.9,7.3-1.4,14.5-2.6,21.7c-0.5,2.9-1.1,5.7-0.7,8.7c-0.6,2.8-1.9,5.1-4.6,6.4c-1.7,0.4-3.5,0.8-5.3,0.4c-3.2-0.7-4.8-2.4-3.6-5.8
		c2.8-4.8,3.4-9.8,2.1-15.3c-1.8-7.4-0.7-15.2-2.3-22.7c-2-9.8-5-19.3-8-28.8c-1.7-5.4-3-10.9-2.8-16.6c-0.9-3.9,2.6-5.7,4-8.5
		c3.5-1.6,6.2-4.3,8.4-7.4c3.3-4.7,8.4-6.4,13.5-8.1C278.4,202.7,279.2,204,278.5,210.2z"/>
	<path class="st3" d="M285.9,188.5l0-0.2c-1.2,5.5-5.5,4.7-9.5,4.7c-0.9,0-1.8,0.1-2.6-0.1c-9.3-2.1-12.1-5.6-11.1-15.1
		c0.5-5.1-0.3-9.4-3.8-13.3c-3.1-3.4-2.7-8-3.2-12.3c-0.3-1.3-0.1-2.7,0.1-4c1.5-3.2,1-5.8-1.5-8.3c-2-2-2.6-4.6-2.4-7.4
		c-1.6-5.6,2.3-8.1,6-10.7c3.7-0.8,7.4-0.5,11.2-0.1c0.8,0.3,1.8,0.3,2.2,0.9c5.6,7.7,11.9,15,10.7,25.6c-0.5,4.4-0.6,8.9-0.9,13.4
		C281.4,170.8,281.5,180,285.9,188.5z"/>
	<path class="st4" d="M258.3,147.9c-0.1,1.3-0.2,2.7-0.3,4c-2.2,3-3.7,6.3-3.7,10.1c0,5.7-3.1,10-6.8,14c-1.1,1.2-2.2,2.2-3.8,0.6
		c-0.6-10.2-0.1-20.5-0.2-30.7c0-1.6,0.4-2.9,1.5-4.1c0-0.3,0-0.7,0-1c1.4-0.8,2.6-2.1,4-3c0.3-0.7,0.7-1.3,1-2
		C254.1,138.9,257.3,142.6,258.3,147.9z"/>
	<path class="st5" d="M271.1,307.9c-1.5-2-1.1-4.1-0.5-6.2c4.5-14.9,1.9-29.9,0.7-44.9c-0.5-5.6-0.6-11.3-0.3-16.9
		c0.2-3.9,2.1-7.2,6-8.9c-3.2,14.7-2.6,29.2,0.3,43.9c1.5,7.7-1.4,15.4-2.7,23.1c-0.5,3.1-1,6.2-0.9,9.4
		C273.1,308.8,272.2,308.6,271.1,307.9z"/>
	<path class="st6" d="M274.7,309.4c2.3,2.8,2.5,4.5-0.8,7.6c-4.6,4.3-9.4,3.8-14.5,3.8c-5.3,0.1-10.6,0-16-0.2
		c-1.7,0-3.5-0.7-3.9-2.5c-0.5-2.1,2.1-1.8,2.7-2.7c2.8-4.3,7.4-4.1,11.5-5.4c1.3,0.4,1.8,1.6,1.5,2.7c-1.1,3.9,1.3,3.7,3.7,3.1
		c3.2-0.9,6.6-0.8,9.5-2.8C270.4,311.6,271.2,308.3,274.7,309.4z"/>
	<path class="st7" d="M275.9,190.9c3.4-0.7,7.3,0.4,10.1-2.6c2,6.4,1.9,12.3-3.8,17.1c-1.5,1.2-2.4,3.1-3.6,4.8
		c-2.2-2.2-1.2-6.8-5.6-7.3c-1.6-3.1-3.3-6.2-1.4-9.8C272.9,192.2,274.9,192.5,275.9,190.9z"/>
	<path class="st8" d="M244.9,141.8c-1.6,11.7-1.5,23.3-0.1,35c1.4,0.5,2,1.6,2.1,2.9c-1.4,9.6-0.1,19.3-0.9,28.9
		c-0.1,1.6,0,3.2,0.7,4.7c0,2.2-1,3.3-3.3,2.9c-0.6-0.3-0.8-0.8-0.4-1.4c0.1-25.7,0.2-51.5,0.2-77.2c0-17.9-0.1-35.9-0.1-53.8
		c1.2,2.2,0.9,4.5,0.9,6.8c0,14.7,0,29.5,0,44.2C244,137.3,243.7,139.7,244.9,141.8z"/>
	<path class="st9" d="M243.1,216.1c1-0.7,2-1.4,3.1-2.1c0.2-1.2,0.9-1.8,2.1-2.1c3.5,0.6,4.4,3.2,4.8,6.3c-0.5,3.3-3,5.2-5.3,7.2
		c-1.5,0.6-3,1.1-4.6,1.7c-2.6-0.8-6.2-0.5-5-5C239.5,219.8,239.8,216.7,243.1,216.1z"/>
	<path class="st10" d="M268.9,313.7c-5,4.8-11.1,5.4-17.5,5c-1.4-0.1-2.2-0.3-1.7-2c0.4-1.1-1.5-2.8,1-3.5c1.5-0.4,4.1-0.3,2.9-3.3
		c1.7-0.4,3.4-0.9,5.1-1.3c1.7,4.3,5.2,4.6,9,3.9C268.7,312.4,269.1,312.7,268.9,313.7z"/>
	<path class="st11" d="M285.9,188.5c-7.6-7.9-7.3-17.2-4.9-26.8C283.2,170.5,284.6,179.5,285.9,188.5z"/>
	<path class="st12" d="M267.9,106.1c-2-0.3-3.4-1.2-3.4-3.4c0-1.2,0.7-2.2,1.9-2.6c1.8-0.6,3.2,0,4.1,1.7c0.3,0.5,0.9,1,1.5,1.1
		c2.1,0.2,3.5,1,3.5,3.2c0,1.2-0.6,2.2-1.8,2.7c-2.1,0.9-3.4-0.5-4.6-1.9C268.4,107,268.1,106.7,267.9,106.1z"/>
	<path class="st13" d="M258.3,147.9c-3.6-3.5-6.9-7.1-8.3-12.1c-0.2-1.5,1-2.3,1.9-3.3c2.2,2,2.2,5.3,5.5,7.1
		C259.8,140.9,259.1,145,258.3,147.9z"/>
	<path class="st14" d="M43.1,226.3c1.1,2.7,1.1,5.4,0.3,9.2C41.6,231.8,42,229.1,43.1,226.3z"/>
	<path class="st15" d="M268.9,313.7c-0.4-0.4-0.8-0.7-1.1-1.1c1.1-1.6,2.3-3.1,3.4-4.7c0.9-0.1,1.8-0.3,2.6-0.4
		c0.3,0.6,0.6,1.3,0.9,1.9C272.8,310.9,270.8,312.3,268.9,313.7z"/>
	<path class="st16" d="M269,121.8c-3.7,0-7.4,0-11.2,0.1c1-0.9,0.6-4.2,3.6-1.4C263.1,121.9,266.6,120.3,269,121.8z"/>
	<path class="st17" d="M43.4,221.2c0.3-2,0.7-3.9,1-5.9C45.3,217.5,45.3,219.5,43.4,221.2z"/>
	<path class="st18" d="M46.9,210.4c0,0-0.5,0.4-0.8,0.3c-0.3,0-0.5-0.6-0.6-1c0-0.2,0.3-0.6,0.5-0.7
		C46.5,208.9,46.7,209.3,46.9,210.4z"/>
	<path class="st19" d="M44,240.1c1.3,0.7,1,1.6,1.2,2.8C43.4,242.2,44.2,240.9,44,240.1z"/>
	<path class="st20" d="M52.4,255.7c-1.5,0-2.5-1-2.1-1.9c0.5-1.1,1.2,0.2,1.6,0.6C52.2,254.7,52.2,255.2,52.4,255.7z"/>
	<path class="st21" d="M267.9,106.1c0.7-0.1,1.1,0.1,1.2,0.8c-0.6,0.7-1.2,1.4-2.1,2.4C266.3,107.7,267.6,107,267.9,106.1z"/>
	<path class="st22" d="M249,137.8c-1,1.5-1.9,3-4,3C245.9,139.3,247,138,249,137.8z"/>
	<path class="st23" d="M67.1,190.8c0-9.3,0-18.6,0-27.9c0.8-1.3,2.1-1.5,3.5-1.5c8.7-0.1,17.4-0.1,26.2,0c1,0,2,0.3,2.8,0.9
		c1.2,1.4,1.1,3.1,1,4.7c-0.4,8,1.1,16.2-0.9,24.1c-1.4,1.2-3.1,1.1-4.7,1.1c-7.6,0-15.2,0.1-22.8,0
		C70.3,192.3,68.3,192.6,67.1,190.8z"/>
	<path class="st23" d="M166.9,277.8c-11,0-21.9,0-32.9,0c-0.5-0.5-1.1-1-1.1-1.6c-0.4-8.6-1.4-17.3,0.6-25.8c1.1-0.9,2.4-1,3.7-1
		c8.9,0,17.9-0.1,26.8,0c1.2,0,2.3,0.1,3.3,0.9c1.7,2.2,1,4.8,1.1,7.2c0.1,4.9,0.1,9.9,0,14.9C168.5,274.3,168.6,276.3,166.9,277.8z
		"/>
	<path class="st23" d="M67.1,219.8c0-9,0-18,0-27c0-1.9,1.5-1.5,2.5-1.5c9,0,18,0,27-0.1c2.8,0,3.9,1.2,4,3.9c0.1,7.3,0.1,14.7,0,22
		c0,2.6-1.2,4.1-3.9,4.1c-8.8,0.1-17.6,0.1-26.5,0C68.9,221.2,67.8,220.9,67.1,219.8z"/>
	<path class="st23" d="M132.9,277.8c-10.6,0-21.3,0-31.9,0c-1.3-0.8-1.5-2.2-1.5-3.5c-0.1-6.8-0.1-13.6,0-20.5
		c0-2.5,0.9-4.3,3.7-4.4c9.3-0.2,18.6-0.3,27.9,0.1c0.7,0,1.3,0.4,1.8,0.8C133.9,259.5,133.9,268.7,132.9,277.8z"/>
	<path class="st23" d="M199.9,277.8c-10.6,0-21.3,0-31.9,0c-1-9.1-0.8-18.2-0.1-27.3c1.1-1,2.4-1.1,3.7-1.1c8.3-0.1,16.5,0,24.8,0
		c3.6,0,5,1.6,5,5.1c-0.1,6.3,0,12.6,0,18.9C201.4,275,201.6,276.7,199.9,277.8z"/>
	<path class="st23" d="M233.9,277.8c-10.6,0-21.3,0-31.9,0c-2.1-3.4-0.8-7.1-1-10.7c-0.2-4.3,0-8.7-0.1-13c-0.1-3,1-4.7,4.3-4.7
		c8.5,0,17-0.1,25.5,0c2,0,3.8,0.6,3.7,3C234.2,260.9,235.1,269.4,233.9,277.8z"/>
	<path class="st24" d="M168,250.9c0,9,0,18,0,26.9c-0.4,0-0.7,0-1.1,0c0-9,0-18,0-26.9c-0.6-0.7-1.2-1.4-1.4-2.4
		c-1.9-9-0.8-18.1-0.8-27.1c0-0.6,0-1.2,0-1.9c-0.4-9-0.4-17.9,0-26.9c0-0.6,0-1.2,0-1.7c-0.5-5.9-0.1-11.9-0.3-17.9
		c-0.2-5.7-1.9-7.3-7.5-7.6c-3.8-0.2-7.6-0.2-11.4-0.7c-6.7-0.9-9.1,1.4-9.1,8.2c0,6,0.2,11.9-0.3,17.9c0,0.6,0,1.2,0,1.8
		c0.4,9,0.4,17.9,0,26.9c0,0.6,0,1.2,0,1.9c0,9.1,1.2,18.2-0.8,27.2c-0.2,1-0.8,1.7-1.4,2.4c0,9,0,18,0.1,26.9c-0.4,0-0.8,0-1.1,0
		c0-9,0-18,0-26.9c-0.6-0.7-1.2-1.4-1.4-2.3c-1.9-8.5-0.9-17.2-0.7-25.8c0-0.6,0-1.2,0-1.8c0-0.6,0-1.2,0-1.8
		c-0.5-8.9-0.5-17.7,0-26.6c0-0.6,0-1.2,0-1.8c-0.5-5.8-0.1-11.6-0.3-17.5c-0.2-5.9-1.9-7.8-7.9-7.8c-7.2,0-14.3-0.4-21.4-1.2
		c-0.9-0.2-1.6-0.7-2.2-1.3c-10.6,0-21.3,0-31.9,0c-0.3-0.3-0.7-0.7-1-1c0.4-0.4,0.9-0.9,1.4-1.2c3.1-1.6,6.4-1.3,9.7-1.3
		c7.1,0,14.2-0.3,21.2,0.3c0.9,0,1.8,0,2.7,0c7-0.7,14-0.2,21-0.4c6.5-0.2,8.2-1.9,8.4-8.4c0.1-3.7,0-7.3,0.1-11
		c0.1-2.2,0.2-4.4,1.9-6c0.5-0.4,1-0.5,1.6-0.3c2.3,1.5,2.2,3.9,2.3,6.2c0.2,4.2-0.1,8.3,0.1,12.5c0.3,4.9,1.9,6.7,6.7,6.9
		c4.8,0.3,9.7,0.3,14.5,0c4.8-0.3,6.4-2,6.7-6.9c0.2-3.8,0-7.6,0.1-11.5c0-2.3,0.1-4.7,1.4-6.8c0.3-0.5,0.7-0.9,1.1-1.3l0,0
		c0.5-0.4,0.9-0.8,1.5-1.2c3.1-1.6,6.5-1.3,9.7-1.3c7.1,0,14.2-0.3,21.3,0.3c0.9,0,1.9,0,2.8,0c8.6-0.6,17.2-0.3,25.8-0.3
		c1.8,0,3.6,0.3,5.3,1.2c0.5,0.4,1,0.8,1.5,1.2c0,0.3,0,0.6,0,1c-0.4,0.4-0.9,0.9-1.4,1.2c-2.6,1.4-5.5,1.6-8.2,1.1
		c-7.5-1.3-15.1-0.6-22.6-0.5c-0.9,0-1.8,0.1-2.7,0.2c-6.9,1-13.9,0.4-20.8,0.6c-7,0.2-8.5,1.7-8.7,8.5c-0.4,14.1,0,14.5,14.1,14.5
		c5.1,0,10.3-0.2,15.4,0.4c0.9,0,1.8,0,2.7,0c8.5-0.7,17.1-0.3,25.6-0.3c1.8,0,3.6,0.3,5.2,1.2c0.5,0.4,1,0.8,1.4,1.2
		c0,0.3,0,0.6,0,1c-0.4,0.4-0.9,0.9-1.4,1.2c-3.1,1.6-6.4,1.3-9.7,1.3c-7.1,0-14.2,0.3-21.2-0.3c-0.9,0-1.8,0-2.7,0
		c-7,0.7-14,0.2-20.9,0.4c-6.6,0.2-8.3,1.8-8.5,8.3c-0.2,5.6,0.2,11.3-0.3,17c0,0.6,0,1.2,0,1.8c0.4,8.9,0.5,17.7-0.1,26.6
		c0,0.6,0,1.2,0,1.8c0,0.6,0,1.2,0.1,1.8c0.2,8.6,1.2,17.3-0.7,25.8C169.2,249.5,168.6,250.2,168,250.9z"/>
	<path class="st25" d="M168,250.9c0-0.7,0-1.4,0-2.1c1.6-2.1,3.9-2.3,6.3-2.4c4.6-0.1,9.3,0,13.9-0.1c7.4-0.1,9.1-1.8,9.2-9.1
		c0.1-3.2,0-6.3,0.1-9.5c0.1-2.2,0.3-4.3,1.9-6c0.8-0.5,1.6-0.6,2.4-0.1c2.1,1.7,2.6,4.1,2.6,6.7c0,3.8-0.2,7.6,0.1,11.5
		c0.3,4.6,2,6.2,6.6,6.5c4.6,0.3,9.3,0.2,13.9,0c1,0,2.1-0.1,2.9-0.6c6-4.1,3-10.3,3.2-15.6c0.1-4.1-3-5.6-6.7-5.7
		c-5.5-0.1-11,0-16.4-0.1c-2.5-0.1-5-0.3-6.2-3.1c0.8-1.7,2.3-1.7,3.8-1.7c8.4-0.1,16.8-0.1,25.2,0c1.5,0,3,0.3,4.1,1.5
		c0,17.3,0,34.6,0,51.8c0,1.7,0.7,3.7-1,5.1c0-7.3-0.1-14.6,0-21.9c0.1-3.6-1.4-5.1-5-5.1c-7.3,0.1-14.6,0.1-21.9,0
		c-3.6-0.1-5.1,1.5-5,5.1c0.1,7.3,0,14.6,0,21.9c-0.7,0.5-1.4,0.5-2.1,0c0-7.3-0.1-14.6,0.1-21.9c0.1-3.6-1.5-5.1-5.1-5.1
		C186,250.9,177,250.9,168,250.9z"/>
	<path class="st26" d="M108.8,120.9c-11,0-22,0-32.9,0c-1.3,0-2.7,0-4-0.2c-1-0.1-2.1-0.5-2.2-1.7c-0.1-1.6,1.1-1.9,2.3-2
		c1.2-0.1,2.3-0.1,3.5-0.1c22.3,0,44.6,0,66.9,0c0.5,0,1-0.1,1.5,0c1.7,0.3,4.4-0.5,4.3,2c-0.1,2.5-2.8,1.9-4.4,1.9
		C132.1,121,120.5,120.9,108.8,120.9z"/>
	<path class="st27" d="M133,248.8c0,0.7,0,1.4,0,2.1c-8.8,0-17.6,0.1-26.4-0.1c-4.1-0.1-5.7,1.5-5.6,5.6c0.2,7.1,0.1,14.3,0.1,21.4
		c-0.7,0.3-1.4,0.7-2,1c-0.4-0.4-0.8-0.9-1.1-1.3c-2.3-4.6-1.2-9.5-1.3-14.3c-0.2-8.4-1.5-9.7-10-10c-6.4-0.2-13,1.3-19.3-1.3
		c-0.5-0.3-0.9-0.7-1.3-1.1c0-9.7,0-19.3,0-29c0.6-0.2,1.1-0.1,1.6,0.2c2.7,3.1,1.8,6.9,1.8,10.5c0.1,13.8,0.1,13.8,14,13.8
		c12.9,0,13-0.2,13.2-13.1c0.1-4-1.2-8.4,2.2-11.9c0.9-0.4,1.7-0.4,2.5,0.1c1.8,1.6,2,3.7,2.1,5.9c0.1,2.6,0.1,5.3,0.1,7.9
		c0.1,9.7,1.3,11,10.8,11c4.1,0,8.3,0,12.4,0.1C129.1,246.5,131.4,246.7,133,248.8z"/>
	<path class="st28" d="M67,221.9c-0.3,0-0.6,0-1,0c0.3-0.7,0.7-1.4,1-2c8.8,0,17.6-0.1,26.5,0.1c4.1,0.1,5.7-1.6,5.5-5.6
		c-0.2-5.7-0.2-11.3,0-17c0.1-3.8-1.3-5.6-5.2-5.4c-8.9,0.5-17.9-1.1-26.8,1c-0.5-0.7-0.5-1.4,0-2c10.6,0,21.3,0,31.9,0
		c0.7-0.7,1.5-1.2,2.5-1.5c9.2-1.9,18.5-0.9,27.7-0.7c1.6,0,2.8,1,3.8,2.1c0,0.4,0,0.8,0,1.1c-1.7,2.3-4.3,2.3-6.8,2.4
		c-5.1,0.1-10.3-0.1-15.4,0.1c-5.1,0.2-6.9,2-7.2,7c-0.2,3-0.2,6,0,9c0.3,5,2.1,6.7,7.2,6.9c5.1,0.2,10.3,0,15.4,0.1
		c2.5,0,5,0.1,6.8,2.4c0,0.4,0,0.7,0,1.1c-1.1,1.2-2.5,1.5-4,1.5c-9-0.1-18,0.3-27.1-0.2c-0.3-0.1-0.6-0.2-0.9-0.2c-0.7,0-1.3,0-2,0
		c-0.3,0.1-0.6,0.1-0.8,0.2c-10.1,0.5-20.2,0.5-30.3,0C67.6,222,67.3,221.9,67,221.9z"/>
	<path class="st28" d="M234.9,220.9c-8.9,0-17.8,0-26.7,0c-2.1,0-4.3-0.2-6.3,1l0,0c-0.7,0-1.3,0-2,0c-0.3,0.1-0.6,0.2-0.9,0.2
		c-9,0.6-18,0.1-27.1,0.2c-1.5,0-2.9-0.3-4-1.5c0-0.4,0-0.7,0-1.1c1.7-2.3,4.2-2.3,6.8-2.4c5.1-0.1,10.3,0.1,15.4-0.1
		c5.1-0.2,6.9-2,7.2-6.9c0.2-3,0.2-6,0-9c-0.3-5-2.1-6.7-7.2-7c-5.1-0.2-10.3,0-15.4-0.1c-2.5,0-5-0.1-6.8-2.4c0-0.4,0-0.8,0-1.1
		c1.5-1.9,3.5-2.3,5.7-2.3c8.6-0.1,17.1-0.4,25.7,0.2c1,0,1.9,0,2.9,0c8.6-0.6,17.3-0.3,25.9-0.3c1.8,0,3.6,0.3,5.3,1.2
		c0.5,0.4,1,0.8,1.5,1.2c0,0.3,0,0.7,0,1c-0.4,0.4-0.9,0.8-1.3,1.1c-2.8,1.6-5.8,1.7-8.7,1.1c-5.4-1.1-10.9-0.3-16.3-0.6
		c-3.6-0.2-5.1,1.4-4.7,4.6c0.5,4.5,0.4,8.9,0.8,13.4c0.3,4.1,2.9,5.7,6.8,5.8c5,0.2,10,0,15,0.1c2.5,0,5,0,7.3,1.4
		c0.5,0.3,0.9,0.7,1.3,1.1C234.9,220.2,234.9,220.5,234.9,220.9z"/>
	<path class="st26" d="M92.3,111.9c-6.1,0-12.3,0-18.4,0c-1.6,0-3.9,0.4-4-1.8c-0.1-2.4,2.2-2,3.8-2.1c12.6-0.1,25.3-0.1,37.9,0
		c1.5,0,3.9-0.3,3.8,2.1c-0.1,2.2-2.5,1.8-4,1.8C104.9,112,98.6,111.9,92.3,111.9z"/>
	<path class="st29" d="M101.1,161.9c-0.7,0-1.4,0-2.1,0c-2.1-1.6-2.3-3.9-2.4-6.3c-0.1-4.2,0.1-8.3-0.2-12.5c-0.3-4.5-2-6.3-6.5-6.6
		c-4.4-0.3-8.8-0.4-13.2-0.9c-4.9-0.5-7.6,2.5-7.3,7.5c0.2,4.3,0.2,8.6,0.1,13c0,2.2-0.5,4.3-2.4,5.8c-0.3,0-0.7,0-1,0
		c0-7.5,0-15,0-22.5c0-6.1,0.4-6.5,6.6-6.5c31.5,0,62.9,0,94.4,0c0,0.3,0,0.7,0,1c-1.3,1.7-3.2,2.3-5.3,2.3
		c-7.5,0.2-14.9,0.2-22.4,0c-2.1-0.1-3.9-0.6-5.3-2.3c-0.3,0-0.7,0-1,0c-1.7,2.3-4.2,2.4-6.8,2.4c-5,0.1-10-0.1-15,0.1
		c-5.6,0.2-7.4,2.1-7.7,7.6c-0.2,3.8,0,7.7-0.1,11.5C103.4,157.9,103.2,160.3,101.1,161.9z"/>
	<path class="st30" d="M168,132.9c-0.3,0-0.7,0-1,0c0-7.7,0.2-15.3-0.1-23c-0.1-4.6,1.6-6.1,6.1-6.1c20.3,0.2,40.6,0.1,60.9,0.1
		c0.3,0.6,0.2,1.2-0.3,1.7c-1.6,1.5-3.6,1.6-5.5,1.6c-8.5,0.1-17.1,0.4-25.6-0.3c-0.9,0-1.8,0-2.7,0c-6.1,0.6-12.2,0.3-18.4,0.4
		c-9.7,0.1-11,1.2-11,10.8c0,3,0,6-0.1,8.9C170.3,129.4,169.9,131.4,168,132.9z"/>
	<path class="st31" d="M99,277.8c0,0.3,0,0.7,0,1c-9.1,0-18.3-0.1-27.4,0c-4.1,0.1-5.7-1.5-5.6-5.6c0.2-7.5,0-15,0-22.4
		c0.3,0,0.7,0,1,0c2.1,1.6,2.3,3.9,2.4,6.3c0.1,3.7-0.1,7.3,0.1,11c0.3,5,2.1,6.8,7.1,7.1c5.2,0.3,10.3,0,15.5,0.1
		C94.8,275.5,97.3,275.5,99,277.8z"/>
	<path class="st32" d="M233.9,104.9c0-0.3,0-0.7,0-1c2,5.8,0.6,11.8,1,17.6c0.2,3.8,0,7.6,0,11.4c-0.3,0-0.7,0-1,0
		C230.4,128.2,230.4,109.6,233.9,104.9z"/>
	<path class="st32" d="M234.9,190.9c-0.3,0-0.7,0-1,0c-3.5-4.7-3.5-23.3,0-27.9c0.3,0,0.7,0,1,0
		C234.9,172.2,234.9,181.5,234.9,190.9z"/>
	<path class="st32" d="M233.9,133.9c0.3,0,0.7,0,1,0c0,9.3,0,18.7,0,28c-0.3,0-0.7,0-1,0C230.4,157.2,230.4,138.6,233.9,133.9z"/>
	<path class="st32" d="M234.9,219.9c-0.3,0-0.7,0-1,0c-3.5-4.7-3.5-23.2,0-27.9c0.3,0,0.7,0,1,0
		C234.9,201.2,234.9,210.5,234.9,219.9z"/>
	<path class="st33" d="M243.1,216.1c-1.5,2.1-2.7,4.5-4.9,5.9c0.3-3.3-0.5-7.2,4.8-7.1C243,215.3,243.1,215.7,243.1,216.1z"/>
	<path class="st34" d="M253.1,218.2c-2.6-0.8-3.5-3.2-4.8-5.2c-2.5-0.8-2.4-3.1-2.3-4.9c0.2-5.7,0.8-11.4,0.5-17.1
		c-0.2-3.7-2.6-7.1-1.7-11c0-1,0-2.1,0-3.1c0.9-1.8,1.4-4,2.8-5.1c3.6-2.9,4.4-6.9,3.9-10.6c-0.8-5.7,2.2-7.7,6.5-9.2
		c0.4,5.7,1.3,11.1,6.2,15c1.7,1.3,1.6,3.5,1.5,5.6c-0.2,2.8-0.6,5.6-0.5,8.4c0.1,6.5,2.1,8.7,8.5,10c1,1.4,0.4,2.3-1,3
		c-1.5,3,1.9,5.9,0.2,9c-5.7,3.9-11.8,7.3-15,14C257,218.9,254.9,218.4,253.1,218.2z"/>
	<path class="st35" d="M272.7,193.9c0.3-1,0.7-2,1-3c0.7,0,1.5,0,2.2,0c0,1.3,0.5,2.7-0.4,3.8C274,196.4,273,196.2,272.7,193.9z"/>
	<path class="st36" d="M244.8,179.9c0.5,1.5,0.7,3.4,1.7,4.6c2.9,3.7,3.1,7.8,2.6,12.2c-0.5,5.4-1.6,10.8-0.9,16.3
		c-0.7,0.3-1.4,0.7-2.1,1c-1-0.6-2-1.4-2-2.7C244.2,200.9,243.1,190.4,244.8,179.9z"/>
	<path class="st27" d="M101.1,190.8c-0.7,0-1.4,0-2.1,0c0-9.3,0-18.6,0-27.9c0.7,0,1.4,0,2.1,0c3.3,6.6,2.3,13.7,2.4,20.7
		C103.5,186.3,103.5,189,101.1,190.8z"/>
	<path class="st27" d="M167,248.8c0,0.7,0,1.4,0,2.1c-11,0-22,0-32.9,0c0-0.7,0-1.4,0-2.1c1.3-1.7,3.2-2.3,5.3-2.3
		c7.5-0.2,14.9-0.2,22.4,0C163.8,246.6,165.6,247.1,167,248.8z"/>
	<path class="st37" d="M72.8,195c-0.2,1.1-0.9,1.8-2,1.7c-0.9-0.1-1.5-0.6-1.6-1.6c-0.1-1.2,0.6-1.9,1.7-2
		C72.1,193.1,72.6,193.9,72.8,195z"/>
	<path class="st23" d="M166.9,192c0,9.3,0,18.6,0,27.8c-1.1,1.2-2.5,1.5-4,1.5c-8.3,0.1-16.5,0.1-24.8,0c-1.5,0-3-0.3-4-1.5
		c0-9.3,0-18.6,0-27.8c1.1-1.2,2.5-1.5,4-1.5c8.3-0.1,16.5-0.1,24.8,0C164.5,190.4,165.9,190.7,166.9,192z"/>
	<path class="st23" d="M167,248.8c-11,0-21.9,0-32.9,0c0-9.3,0-18.6,0-27.8c9.3-1.3,18.7-0.3,28.1-0.6c1.6,0,3.3-0.5,4.8,0.6
		C166.9,230.2,166.9,239.5,167,248.8z"/>
	<path class="st23" d="M134,133.9c11,0,22,0,32.9,0c0,7.6-0.1,15.3,0.1,22.9c0.1,3.6-1.5,5.1-5.1,5c-7.6-0.1-15.3-0.1-22.9,0
		c-3.6,0.1-5.1-1.5-5-5.1C134.1,149.2,134,141.6,134,133.9z"/>
	<path class="st23" d="M134,190.8c0-7.6,0.1-15.3-0.1-22.9c-0.1-3.6,1.5-5.1,5.1-5c7.6,0.1,15.3,0.1,22.9,0c3.6-0.1,5.1,1.4,5.1,5
		c-0.1,7.6,0,15.3-0.1,22.9C156,191.7,145,191.7,134,190.8z"/>
	<path class="st23" d="M199.9,161.9c-9,0-17.9-0.1-26.9,0.1c-3.6,0-5.1-1.4-5-5c0.1-6,0.1-12,0-17.9c-0.1-3.6,1.4-5.1,5-5
		c9,0.1,17.9,0.1,26.9,0.1c1,0.9,1.5,2.2,1.5,3.5c0.1,6.9,0.1,13.9,0,20.8C201.4,159.7,201,160.9,199.9,161.9z"/>
	<path class="st23" d="M101.1,161.9c0-7.6,0.1-15.3-0.1-22.9c-0.1-3.6,1.5-5.1,5.1-5c9,0.1,17.9,0,26.9,0c0,7.6-0.1,15.3,0,22.9
		c0.1,3.6-1.4,5.1-5,5.1C119,161.8,110.1,161.9,101.1,161.9z"/>
	<path class="st23" d="M233.9,104.9c0,9.3,0,18.6,0,27.9c-10.6,0-21.3,0-31.9,0c-1-1-1.5-2.2-1.5-3.5c-0.1-6.9-0.1-13.9,0-20.8
		c0-1.4,0.5-2.6,1.5-3.6C212.7,104.9,223.3,104.9,233.9,104.9z"/>
	<path class="st23" d="M168,132.9c0-7.6,0.1-15.3-0.1-22.9c-0.1-3.6,1.5-5.1,5.1-5.1c9,0.1,17.9,0,26.9,0c2.1,5.3,0.8,10.8,0.9,16.2
		c0.1,3.9,1.1,8-0.9,11.7C189.3,132.9,178.7,132.9,168,132.9z"/>
	<path class="st23" d="M168,192c8.8,0,17.6,0.1,26.4-0.1c4.1-0.1,5.7,1.5,5.6,5.6c-0.2,5.8-0.1,11.6,0,17.4c0.1,3.6-1.5,5.1-5.1,5
		c-9-0.1-17.9-0.1-26.9-0.1C168,210.5,168,201.2,168,192z"/>
	<path class="st23" d="M133,219.8c-9,0-17.9,0-26.9,0.1c-3.6,0-5.2-1.4-5.1-5c0.1-6,0.1-12,0-17.9c-0.1-3.6,1.5-5.1,5.1-5
		c9,0.1,17.9,0.1,26.9,0.1C133,201.2,133,210.5,133,219.8z"/>
	<path class="st23" d="M199.9,190.8c-10.6,0-21.3,0-31.9,0c0-7.6,0.1-15.3-0.1-22.9c-0.1-3.6,1.5-5.1,5.1-5c9,0.1,17.9,0.1,26.9,0.1
		c1,1,1.5,2.2,1.5,3.5c0.1,6.9,0.1,13.9,0,20.8C201.4,188.7,201,189.9,199.9,190.8z"/>
	<path class="st23" d="M233.9,162.9c0,9.3,0,18.6,0,27.9c-10.6,0-21.3,0-31.9,0c-2.2-4.9-0.9-10.1-0.9-15.2
		c-0.1-4.2-1.2-8.6,0.9-12.7C212.7,162.9,223.3,162.9,233.9,162.9z"/>
	<path class="st23" d="M101.1,190.8c0-9.3,0-18.6,0-27.9c9,0,17.9,0.1,26.9-0.1c3.6,0,5.1,1.4,5.1,5c-0.1,7.6-0.1,15.3-0.1,22.9
		C122.3,190.8,111.7,190.8,101.1,190.8z"/>
	<path class="st23" d="M67.1,161.9c0-7.6,0.1-15.3,0-22.9c-0.1-3.6,1.4-5.1,5-5.1c7.3,0.1,14.6,0.1,21.9,0c3.6-0.1,5.1,1.4,5.1,5
		c-0.1,7.6-0.1,15.3-0.1,22.9C88.4,161.9,77.7,161.9,67.1,161.9z"/>
	<path class="st23" d="M200,221.9c0,7.3-0.1,14.6,0,21.9c0.1,3.6-1.4,5.1-5,5.1c-9-0.1-17.9-0.1-26.9-0.1c0-9,0-17.9,0-26.9
		C178.7,221,189.3,221.1,200,221.9L200,221.9z"/>
	<path class="st23" d="M133,248.8c-8.8,0-17.6-0.1-26.4,0.1c-4.1,0.1-5.7-1.5-5.6-5.6c0.2-7.1,0-14.3,0-21.4c0,0,0,0,0,0
		c10.7-0.8,21.3-0.8,32,0C133,230.9,133,239.8,133,248.8z"/>
	<path class="st23" d="M233.9,133.9c0,9.3,0,18.6,0,27.9c-10.6,0-21.3,0-31.9,0c-1.3-1.4-1.1-3.1-1-4.7c0.5-7.7-1.2-15.5,1-23.2
		C212.7,133.9,223.3,133.9,233.9,133.9z"/>
	<path class="st27" d="M202,162.9c0,9.3,0,18.6,0,27.9c-0.7,0-1.4,0-2.1,0c0-9.3,0-18.6,0-27.9C200.6,162.9,201.3,162.9,202,162.9z"
		/>
	<path class="st27" d="M199.9,132.9c0-9.3,0-18.6,0-27.9c0.7,0,1.4,0,2.1,0c0,9.3,0,18.6,0,27.9
		C201.3,132.9,200.6,132.9,199.9,132.9z"/>
	<path class="st27" d="M202,133.9c0,9.3,0,18.6,0,27.9c-0.7,0-1.4,0-2.1,0c0-9.3,0-18.6,0-27.9C200.6,134,201.3,134,202,133.9z"/>
	<path class="st28" d="M134,190.8c11,0,21.9,0,32.9,0c0,0.4,0,0.8,0,1.1c-11,0-21.9,0-32.9,0C134.1,191.6,134.1,191.2,134,190.8z"/>
	<path class="st28" d="M166.9,221c-10.9,0-21.9,0-32.8,0c0-0.4,0-0.8,0-1.2c11,0,21.9,0,32.9,0C166.9,220.2,166.9,220.6,166.9,221z"
		/>
	<path class="st38" d="M200,221.9c-10.7,0-21.3,0-32,0c0-0.3,0-0.7,0-1c8.6,0,17.1,0,25.7,0C195.8,220.9,198,220.7,200,221.9z"/>
	<path class="st38" d="M133,221.9c-10.7,0-21.3,0-32,0c4.8-2,9.8-0.8,14.7-1c5.8-0.2,11.5,0,17.3,0C133,221.2,133,221.5,133,221.9z"
		/>
	<path class="st23" d="M202,221.9c8.8,0,17.6,0.1,26.4-0.1c4-0.1,5.8,1.5,5.6,5.6c-0.2,5.6-0.1,11.3-0.1,16.9c0,3.1-1.4,4.6-4.5,4.5
		c-7.6,0-15.3-0.1-22.9,0c-3.5,0-4.6-1.9-4.5-5.1C202,236.5,202,229.2,202,221.9C202,221.9,202,221.9,202,221.9z"/>
	<path class="st23" d="M99,277.8c-8.8,0-17.6-0.1-26.4,0.1c-4.1,0.1-5.7-1.5-5.6-5.6c0.2-7.1,0.1-14.3,0.1-21.4
		c8.8,0,17.6,0.1,26.4-0.1c4.1-0.1,5.7,1.5,5.6,5.6C98.9,263.5,99,270.7,99,277.8z"/>
	<path class="st23" d="M99,221.9c0,7.3-0.1,14.6,0,21.9c0.1,3.6-1.4,5.1-5,5.1c-7.3-0.1-14.6-0.1-21.9,0c-3.6,0.1-5.1-1.5-5-5.1
		c0.1-7.3,0-14.6,0-21.9c0,0,0,0,0,0C77.7,221,88.4,221,99,221.9L99,221.9z"/>
	<path class="st38" d="M99,221.9c-10.7,0-21.3,0-32,0C77.7,220.2,88.4,220.2,99,221.9z"/>
	<path class="st23" d="M233.9,191.9c0,9.3,0,18.6,0,27.9c-8.8,0-17.6-0.1-26.4,0.1c-4,0.1-5.7-1.5-5.6-5.6c0.2-5.8,0.1-11.6,0-17.4
		c-0.1-3.6,1.5-5.1,5.1-5C216,192,224.9,191.9,233.9,191.9z"/>
	<path class="st39" d="M254.6,183.7c2.3,3.7,4.3,7.5,1.4,12.7C254.2,191.7,255.5,187.6,254.6,183.7z"/>
	<path class="st40" d="M269.2,194.1c0.8,2.2,0.9,3.4,0.2,4.7C268.6,197.6,269,196.4,269.2,194.1z"/>
	<path class="st41" d="M137.8,164.3c1.3,0.1,2.1,0.6,2.2,1.8c0.1,1.2-0.6,1.8-1.8,1.9c-1.1,0.1-1.9-0.5-2-1.7
		C136,165,137,164.7,137.8,164.3z"/>
	<path class="st42" d="M142.8,164.4c1.1,0.2,2,0.8,1.8,2c-0.2,1-1,1.7-2.1,1.6c-0.9-0.1-1.5-0.7-1.4-1.7
		C141,165.1,141.7,164.4,142.8,164.4z"/>
	<path class="st43" d="M106.2,166.4c-0.2,1.2-0.9,1.7-2,1.5c-0.9-0.1-1.4-0.8-1.4-1.7c0-1.1,0.7-1.8,1.8-1.8
		C105.7,164.5,106.2,165.3,106.2,166.4z"/>
	<path class="st44" d="M75.8,139.9c-1.1,0-1.8-0.6-1.9-1.7c-0.1-1.1,0.5-1.9,1.6-2c1.1-0.1,1.8,0.7,1.9,1.7
		C77.6,139,77,139.7,75.8,139.9z"/>
	<path class="st45" d="M70.8,136.2c1.1,0.1,1.9,0.6,2,1.7c0.1,1.1-0.7,1.8-1.8,1.9c-1,0.1-1.6-0.5-1.8-1.4
		C69,137.2,69.7,136.6,70.8,136.2z"/>
	<path class="st46" d="M218.9,139.1c-0.9-0.2-1.5,0.1-2.3,0.6c-0.9,0.5-1.9,0.4-2.6-0.6c-0.5-0.8-0.5-1.6,0.1-2.3
		c0.8-0.9,1.7-1,2.6-0.2c0.7,0.6,1.4,0.8,2.2,0.5C219.5,137.7,219.5,138.4,218.9,139.1z"/>
	<path class="st47" d="M210.9,136.2c1.1,0.3,1.9,0.9,1.8,2c-0.1,1-0.8,1.8-2,1.7c-1.2-0.1-1.8-0.8-1.7-1.9
		C209.1,136.8,209.8,136.2,210.9,136.2z"/>
	<path class="st48" d="M207.9,137.6c0,1.4-0.6,2.1-1.7,2.2c-1.1,0.1-1.8-0.7-2-1.7c-0.1-1.1,0.7-1.8,1.7-1.9
		C207.1,136,207.5,137,207.9,137.6z"/>
	<path class="st49" d="M218.9,139.1c0-0.7,0.1-1.4,0.1-2.1c0.8-1,1.6-1.1,2.5-0.2c0.7,0.7,0.7,1.6,0.2,2.3
		C220.9,140.1,219.8,140.3,218.9,139.1z"/>
	<path class="st50" d="M217,195.9c0.6-0.1,1.3-0.1,1.8-0.4c1.1-0.7,2.1-0.8,3,0.2c0.5,0.7,0.6,1.6,0,2.2c-1.1,1.4-2.1,1-3.3,0
		c-0.3-0.3-0.9-0.4-1.3-0.5C216.7,196.9,216.6,196.5,217,195.9z"/>
	<path class="st51" d="M210.9,198.7c-1.2,0-1.9-0.6-2-1.8c-0.1-1.2,0.5-1.9,1.7-2c1.1-0.1,1.9,0.7,2,1.7
		C212.8,197.9,212,198.5,210.9,198.7z"/>
	<path class="st50" d="M217,195.9c0.1,0.5,0.2,1,0.2,1.5c-0.6,1.5-1.6,2-2.9,0.8c-0.6-0.5-0.8-1.5-0.3-2.2
		C214.9,194.6,215.9,194.5,217,195.9z"/>
	<path class="st52" d="M205.7,195c1.3,0.1,2.1,0.7,2.2,1.8c0.1,1.1-0.7,1.8-1.7,1.9c-1.1,0.1-1.8-0.6-1.9-1.7
		C204.1,195.8,205,195.4,205.7,195z"/>
</g>
</svg>
